HIERARCHY
ROOT Hips
{
 OFFSET 0.000000 0.000000 0.000000
 CHANNELS 6 Xposition Yposition Zposition Yrotation Xrotation Zrotation
 JOINT Chest
 {
  OFFSET 0.000000 9.588913 -0.003946
  CHANNELS 3 Yrotation Xrotation Zrotation
  JOINT Chest2
  {
   OFFSET 0.000000 9.541882 0.008053
   CHANNELS 3 Yrotation Xrotation Zrotation
   JOINT Chest3
   {
    OFFSET 0.000000 9.501360 0.000000
    CHANNELS 3 Yrotation Xrotation Zrotation
    JOINT Chest4
    {
     OFFSET 0.000000 9.491660 0.000000
     CHANNELS 3 Yrotation Xrotation Zrotation
     JOINT Neck
     {
      OFFSET 0.000000 14.331917 0.000000
      CHANNELS 3 Yrotation Xrotation Zrotation
      JOINT Head
      {
       OFFSET 0.000000 8.884799 0.017034
       CHANNELS 3 Yrotation Xrotation Zrotation
       End Site
       {
        OFFSET 0.000000 16.896195 0.008993
       }
      }
     }
     JOINT RightCollar
     {
      OFFSET -2.923010 9.499495 0.000000
      CHANNELS 3 Yrotation Xrotation Zrotation
      JOINT RightShoulder
      {
       OFFSET -13.795216 0.000000 0.000000
       CHANNELS 3 Yrotation Xrotation Zrotation
       JOINT RightElbow
       {
        OFFSET -30.272209 0.000000 0.000000
        CHANNELS 3 Yrotation Xrotation Zrotation
        JOINT RightWrist
        {
         OFFSET -24.478199 0.000000 0.000000
         CHANNELS 3 Yrotation Xrotation Zrotation
         End Site
         {
          OFFSET -18.090752 0.000000 0.000000
         }
        }
       }
      }
     }
     JOINT LeftCollar
     {
      OFFSET 2.923010 9.499495 0.000000
      CHANNELS 3 Yrotation Xrotation Zrotation
      JOINT LeftShoulder
      {
       OFFSET 13.795216 0.000000 0.000000
       CHANNELS 3 Yrotation Xrotation Zrotation
       JOINT LeftElbow
       {
        OFFSET 30.272209 0.000000 0.000000
        CHANNELS 3 Yrotation Xrotation Zrotation
        JOINT LeftWrist
        {
         OFFSET 24.478199 0.000000 0.000000
         CHANNELS 3 Yrotation Xrotation Zrotation
         End Site
         {
          OFFSET 18.090752 0.000000 0.000000
         }
        }
       }
      }
     }
    }
   }
  }
 }
 JOINT RightHip
 {
  OFFSET -7.826875 0.019532 0.001973
  CHANNELS 3 Yrotation Xrotation Zrotation
  JOINT RightKnee
  {
   OFFSET 0.000000 -40.546152 -0.001885
   CHANNELS 3 Yrotation Xrotation Zrotation
   JOINT RightAnkle
   {
    OFFSET 0.000000 -39.417092 -0.003189
    CHANNELS 3 Yrotation Xrotation Zrotation
    JOINT RightToe
    {
     OFFSET 0.000000 -7.579396 17.243563
     CHANNELS 3 Yrotation Xrotation Zrotation
     End Site
     {
      OFFSET 0.000000 -1.500329 6.694466
     }
    }
   }
  }
 }
 JOINT LeftHip
 {
  OFFSET 7.826875 0.019532 0.001973
  CHANNELS 3 Yrotation Xrotation Zrotation
  JOINT LeftKnee
  {
   OFFSET 0.000000 -40.546152 -0.001885
   CHANNELS 3 Yrotation Xrotation Zrotation
   JOINT LeftAnkle
   {
    OFFSET 0.000000 -39.417092 -0.003189
    CHANNELS 3 Yrotation Xrotation Zrotation
    JOINT LeftToe
    {
     OFFSET 0.000000 -7.579396 17.243563
     CHANNELS 3 Yrotation Xrotation Zrotation
     End Site
     {
      OFFSET 0.000000 -1.500329 6.694466
     }
    }
   }
  }
 }
}
MOTION
Frames: 5
Frame Time: 0.008333
0.000000 87.345680 0.000000 0.000000 -5.767889 0.000000 0.000000 11.653876 0.000000 0.000000 -5.885988 0.000000 0.000000 -0.000000 0.000000 0.000000 -0.000000 0.000000 0.000000 12.528808 0.000000 0.000000 0.711711 0.000000 0.000000 -0.000000 0.000000 0.000000 -0.000000 0.000000 2.309063 -0.000000 0.000000 -2.309063 -0.000000 -0.000000 0.000000 -0.000000 0.000000 0.000000 0.000000 0.000000 -2.309063 0.000000 0.000000 2.309063 -0.000000 0.000000 0.000000 8.520374 0.000000 0.000000 1.905768 0.000000 -0.000000 -4.658254 0.000000 0.000000 -0.000000 0.000000 0.000000 8.520374 0.000000 0.000000 1.905768 0.000000 -0.000000 -4.658254 0.000000 0.000000 -0.000000 0.000000
-3.872048 88.423514 -22.093549 124.853667 -7.883963 0.811706 0.690138 2.379526 0.137290 0.371135 1.353484 0.171173 0.464583 1.691679 0.215351 0.371135 1.353484 0.171173 -5.043267 27.086073 -1.185449 -5.286234 4.142660 -0.157935 -6.152622 0.388179 -0.252370 -2.410441 1.281793 88.420326 0.921298 -0.980511 -0.876462 1.442268 -3.527207 -1.081757 0.323281 1.092322 -1.411230 2.314006 -2.483708 -89.988026 -4.124039 1.018886 -2.448377 0.353621 4.388263 1.972774 -13.702985 8.111236 -12.413872 -1.582033 0.662993 -1.216592 1.386130 -2.458280 9.407579 -0.017336 -0.147353 -0.009265 9.487612 11.140238 6.357579 10.942472 -1.235016 0.443002 5.424730 -1.964212 -6.626538 0.071732 0.314154 0.022412
-3.869604 88.423103 -22.092678 124.851542 -7.874421 0.815975 0.682873 2.377813 0.142259 0.367401 1.352533 0.173354 0.459923 1.690490 0.218062 0.367401 1.352533 0.173354 -5.052312 27.073083 -1.196900 -5.293402 4.126541 -0.168412 -6.155318 0.389667 -0.244875 -2.426342 1.282343 88.412211 0.919544 -1.007690 -0.879270 1.444766 -3.529289 -1.076158 0.309082 1.077270 -1.433738 2.271657 -2.513375 -89.972248 -4.124875 1.075035 -2.445332 0.357767 4.403382 1.949825 -13.695655 8.104832 -12.421574 -1.588607 0.657367 -1.205898 1.387414 -2.456534 9.405492 -0.016817 -0.146532 -0.010208 9.484299 11.132046 6.352071 10.939012 -1.232856 0.448131 5.432241 -1.968016 -6.630179 0.072084 0.313032 0.022371
-3.866160 88.422830 -22.092254 124.844357 -7.865637 0.819678 0.678181 2.375781 0.147531 0.365260 1.351431 0.175812 0.457255 1.689110 0.221127 0.365260 1.351431 0.175812 -5.062143 27.062936 -1.206684 -5.301892 4.114121 -0.176898 -6.161704 0.391377 -0.239713 -2.436359 1.286622 88.403025 0.919985 -1.039819 -0.879998 1.443621 -3.534755 -1.064768 0.295240 1.066789 -1.452271 2.229262 -2.543140 -89.961827 -4.116571 1.127319 -2.427488 0.360810 4.422893 1.927644 -13.684869 8.099946 -12.427906 -1.592121 0.650218 -1.196461 1.386276 -2.453351 9.404256 -0.016052 -0.146502 -0.010961 9.488504 11.122126 6.346947 10.938757 -1.224925 0.457170 5.436225 -1.976059 -6.635072 0.071492 0.311983 0.021177
-3.861535 88.422756 -22.092451 124.835576 -7.859001 0.821075 0.674420 2.373333 0.153496 0.363381 1.350054 0.178582 0.454916 1.687388 0.224581 0.363381 1.350054 0.178582 -5.071914 27.056908 -1.214293 -5.310909 4.106974 -0.183035 -6.168300 0.395515 -0.236960 -2.443768 1.292470 88.394290 0.919178 -1.077318 -0.878544 1.440622 -3.541715 -1.049102 0.285186 1.061269 -1.465377 2.186005 -2.568306 -89.953690 -4.103719 1.173331 -2.399003 0.364205 4.442446 1.910259 -13.673188 8.097944 -12.430772 -1.592782 0.643237 -1.190075 1.382156 -2.449046 9.402583 -0.014839 -0.148162 -0.009936 9.497304 11.110686 6.344640 10.941883 -1.209402 0.468573 5.435566 -1.989353 -6.640454 0.070653 0.310820 0.019046
